<svg width="1200" height="360" viewBox="0 0 1200 360" fill="none" xmlns="http://www.w3.org/2000/svg" role="img" aria-labelledby="title desc">
  <title id="title">TrafficSkip product concept cover</title>
  <desc id="desc">Smart city mobility assistant cover with routes and transport modes.</desc>
  <rect width="1200" height="360" rx="24" fill="#111827"/>
  <path d="M0 244c180-64 320-70 496-20 159 45 287 54 424-19 102-54 186-62 280-37v192H0V244Z" fill="#173923"/>
  <path d="M76 254c144-61 267-63 409-12 120 43 235 52 354-12 89-48 181-70 285-29" stroke="#f6d365" stroke-width="8" stroke-linecap="round"/>
  <path d="M120 224h98M258 224h98M396 224h98M534 224h98M672 224h98M810 224h98M948 224h98" stroke="#ffffff" stroke-width="6" stroke-linecap="round" opacity=".85"/>
  <g font-family="Segoe UI, Arial, sans-serif">
    <text x="76" y="102" fill="#ffffff" font-size="46" font-weight="700">SKIP THE TRAFFIC</text>
    <text x="78" y="144" fill="#b7d7c5" font-size="22">assistant for rational urban mobility: car, metro, public transport or reschedule</text>
  </g>
  <g transform="translate(78 190)" font-family="Segoe UI, Arial, sans-serif">
    <rect width="128" height="48" rx="14" fill="#2f6f6d"/>
    <text x="24" y="31" fill="#ffffff" font-size="17" font-weight="700">car</text>
    <rect x="148" width="128" height="48" rx="14" fill="#3b6ea8"/>
    <text x="172" y="31" fill="#ffffff" font-size="17" font-weight="700">metro</text>
    <rect x="296" width="168" height="48" rx="14" fill="#7a5c2e"/>
    <text x="320" y="31" fill="#ffffff" font-size="17" font-weight="700">reschedule</text>
  </g>
</svg>
